<svg width="30" height="30" viewBox="0 0 30 30" fill="none" xmlns="http://www.w3.org/2000/svg">
<path d="M28.3334 21.5605V25.5605C28.3349 25.9318 28.2589 26.2993 28.1101 26.6396C27.9613 26.9798 27.7431 27.2852 27.4695 27.5363C27.1959 27.7873 26.8728 27.9784 26.5211 28.0974C26.1693 28.2164 25.7966 28.2605 25.4267 28.2271C21.3239 27.7813 17.3827 26.3793 13.9201 24.1338C10.6985 22.0867 7.96719 19.3554 5.92007 16.1338C3.66671 12.6554 2.2644 8.69511 1.82674 4.57379C1.79342 4.20508 1.83724 3.83347 1.95541 3.48262C2.07357 3.13177 2.2635 2.80937 2.51309 2.53595C2.76269 2.26253 3.06648 2.04407 3.40513 1.89448C3.74378 1.7449 4.10986 1.66747 4.48007 1.66712H8.48007C9.12715 1.66075 9.75446 1.88989 10.2451 2.31183C10.7357 2.73377 11.0562 3.31972 11.1467 3.96045C11.3156 5.24054 11.6287 6.49742 12.0801 7.70712C12.2595 8.18435 12.2983 8.70301 12.1919 9.20163C12.0856 9.70025 11.8386 10.1579 11.4801 10.5205L9.78674 12.2138C11.6848 15.5518 14.4487 18.3157 17.7867 20.2138L19.4801 18.5205C19.8426 18.162 20.3003 17.9149 20.7989 17.8086C21.2975 17.7022 21.8162 17.7411 22.2934 17.9205C23.5031 18.3719 24.76 18.685 26.0401 18.8538C26.6878 18.9452 27.2793 19.2714 27.7021 19.7704C28.125 20.2695 28.3496 20.9066 28.3334 21.5605Z" stroke="white" stroke-width="3" stroke-linecap="round" stroke-linejoin="round"/>
</svg>
