<svg width="32" height="32" viewBox="0 0 32 32" fill="none" xmlns="http://www.w3.org/2000/svg">
<path d="M4 8.00033L8 2.66699H24L28 8.00033M4 8.00033V26.667C4 27.3742 4.28095 28.0525 4.78105 28.5526C5.28115 29.0527 5.95942 29.3337 6.66667 29.3337H25.3333C26.0406 29.3337 26.7189 29.0527 27.219 28.5526C27.719 28.0525 28 27.3742 28 26.667V8.00033M4 8.00033H28M21.3333 13.3337C21.3333 14.7481 20.7714 16.1047 19.7712 17.1049C18.771 18.1051 17.4145 18.667 16 18.667C14.5855 18.667 13.229 18.1051 12.2288 17.1049C11.2286 16.1047 10.6667 14.7481 10.6667 13.3337" stroke="#F3F3F3" stroke-width="3" stroke-linecap="round" stroke-linejoin="round"/>
</svg>
