<svg width="30" height="30" viewBox="0 0 30 30" fill="none" xmlns="http://www.w3.org/2000/svg">
<path d="M28.3332 15.0003C28.3332 22.3641 22.3636 28.3337 14.9998 28.3337M28.3332 15.0003C28.3332 7.63653 22.3636 1.66699 14.9998 1.66699M28.3332 15.0003H1.6665M14.9998 28.3337C7.63604 28.3337 1.6665 22.3641 1.6665 15.0003M14.9998 28.3337C18.3349 24.6825 20.2302 19.9443 20.3332 15.0003C20.2302 10.0564 18.3349 5.31813 14.9998 1.66699M14.9998 28.3337C11.6648 24.6825 9.7695 19.9443 9.6665 15.0003C9.7695 10.0564 11.6648 5.31813 14.9998 1.66699M1.6665 15.0003C1.6665 7.63653 7.63604 1.66699 14.9998 1.66699" stroke="white" stroke-width="3" stroke-linecap="round" stroke-linejoin="round"/>
</svg>
